<mxfile host="app.diagrams.net" modified="2023-11-25T12:08:05.644Z" agent="Mozilla/5.0 (Windows NT 10.0; Win64; x64) AppleWebKit/537.36 (KHTML, like Gecko) Chrome/119.0.0.0 Safari/537.36" etag="f4FNu5LX_HaNttPhEYP9" version="21.7.5" type="github">
  <diagram name="Strona-1" id="jpUANyrpvb4aqHIrl6He">
    <mxGraphModel dx="1434" dy="768" grid="1" gridSize="10" guides="1" tooltips="1" connect="1" arrows="1" fold="1" page="1" pageScale="1" pageWidth="827" pageHeight="1169" math="0" shadow="0">
      <root>
        <mxCell id="0" />
        <mxCell id="1" parent="0" />
        <mxCell id="WDfkzNo3VNNOmqNmVodv-11" value="" style="edgeStyle=orthogonalEdgeStyle;rounded=0;orthogonalLoop=1;jettySize=auto;html=1;fontFamily=Verdana;fontSize=13;" edge="1" parent="1" source="WDfkzNo3VNNOmqNmVodv-1" target="WDfkzNo3VNNOmqNmVodv-2">
          <mxGeometry relative="1" as="geometry" />
        </mxCell>
        <mxCell id="WDfkzNo3VNNOmqNmVodv-1" value="&lt;font style=&quot;font-size: 13px;&quot;&gt;START&lt;/font&gt;" style="ellipse;whiteSpace=wrap;html=1;fontFamily=Verdana;fontSize=13;" vertex="1" parent="1">
          <mxGeometry x="380" y="75" width="120" height="80" as="geometry" />
        </mxCell>
        <mxCell id="WDfkzNo3VNNOmqNmVodv-7" style="edgeStyle=orthogonalEdgeStyle;rounded=0;orthogonalLoop=1;jettySize=auto;html=1;entryX=0.5;entryY=0;entryDx=0;entryDy=0;fontFamily=Verdana;fontSize=13;" edge="1" parent="1" source="WDfkzNo3VNNOmqNmVodv-2" target="WDfkzNo3VNNOmqNmVodv-6">
          <mxGeometry relative="1" as="geometry" />
        </mxCell>
        <mxCell id="WDfkzNo3VNNOmqNmVodv-8" style="edgeStyle=orthogonalEdgeStyle;rounded=0;orthogonalLoop=1;jettySize=auto;html=1;entryX=0.5;entryY=0;entryDx=0;entryDy=0;fontFamily=Verdana;fontSize=13;" edge="1" parent="1" source="WDfkzNo3VNNOmqNmVodv-2" target="WDfkzNo3VNNOmqNmVodv-5">
          <mxGeometry relative="1" as="geometry" />
        </mxCell>
        <mxCell id="WDfkzNo3VNNOmqNmVodv-2" value="&lt;font style=&quot;font-size: 13px;&quot;&gt;Wybór sposobu sterowania&lt;/font&gt;" style="rounded=0;whiteSpace=wrap;html=1;fontFamily=Verdana;fontSize=13;" vertex="1" parent="1">
          <mxGeometry x="380" y="225" width="120" height="60" as="geometry" />
        </mxCell>
        <mxCell id="WDfkzNo3VNNOmqNmVodv-18" style="edgeStyle=orthogonalEdgeStyle;rounded=0;orthogonalLoop=1;jettySize=auto;html=1;entryX=0.25;entryY=0;entryDx=0;entryDy=0;fontFamily=Verdana;fontSize=13;" edge="1" parent="1" source="WDfkzNo3VNNOmqNmVodv-5" target="WDfkzNo3VNNOmqNmVodv-17">
          <mxGeometry relative="1" as="geometry" />
        </mxCell>
        <mxCell id="WDfkzNo3VNNOmqNmVodv-27" style="edgeStyle=orthogonalEdgeStyle;rounded=0;orthogonalLoop=1;jettySize=auto;html=1;" edge="1" parent="1" source="WDfkzNo3VNNOmqNmVodv-5">
          <mxGeometry relative="1" as="geometry">
            <mxPoint x="120" y="395" as="targetPoint" />
          </mxGeometry>
        </mxCell>
        <mxCell id="WDfkzNo3VNNOmqNmVodv-5" value="&lt;font style=&quot;font-size: 13px;&quot;&gt;Sterowanie klawiaturą i myszką&lt;/font&gt;" style="rounded=0;whiteSpace=wrap;html=1;fontFamily=Verdana;fontSize=13;" vertex="1" parent="1">
          <mxGeometry x="210" y="315" width="120" height="60" as="geometry" />
        </mxCell>
        <mxCell id="WDfkzNo3VNNOmqNmVodv-19" style="edgeStyle=orthogonalEdgeStyle;rounded=0;orthogonalLoop=1;jettySize=auto;html=1;entryX=0.75;entryY=0;entryDx=0;entryDy=0;fontFamily=Verdana;fontSize=13;" edge="1" parent="1" source="WDfkzNo3VNNOmqNmVodv-6" target="WDfkzNo3VNNOmqNmVodv-17">
          <mxGeometry relative="1" as="geometry" />
        </mxCell>
        <mxCell id="WDfkzNo3VNNOmqNmVodv-6" value="Sterowanie kontrolerem&amp;nbsp;" style="rounded=0;whiteSpace=wrap;html=1;fontFamily=Verdana;fontSize=13;" vertex="1" parent="1">
          <mxGeometry x="550" y="315" width="120" height="60" as="geometry" />
        </mxCell>
        <mxCell id="WDfkzNo3VNNOmqNmVodv-31" value="" style="edgeStyle=orthogonalEdgeStyle;rounded=0;orthogonalLoop=1;jettySize=auto;html=1;" edge="1" parent="1" source="WDfkzNo3VNNOmqNmVodv-12" target="WDfkzNo3VNNOmqNmVodv-25">
          <mxGeometry relative="1" as="geometry" />
        </mxCell>
        <mxCell id="WDfkzNo3VNNOmqNmVodv-12" value="Uruchomienie interfejsu sieciowego&amp;nbsp;" style="rounded=0;whiteSpace=wrap;html=1;fontFamily=Verdana;fontSize=13;" vertex="1" parent="1">
          <mxGeometry x="60" y="395" width="120" height="60" as="geometry" />
        </mxCell>
        <mxCell id="WDfkzNo3VNNOmqNmVodv-28" style="edgeStyle=orthogonalEdgeStyle;rounded=0;orthogonalLoop=1;jettySize=auto;html=1;entryX=0.5;entryY=0;entryDx=0;entryDy=0;exitX=0;exitY=1;exitDx=0;exitDy=0;" edge="1" parent="1" source="WDfkzNo3VNNOmqNmVodv-17" target="WDfkzNo3VNNOmqNmVodv-20">
          <mxGeometry relative="1" as="geometry">
            <mxPoint x="367" y="575" as="sourcePoint" />
            <Array as="points">
              <mxPoint x="267" y="575" />
            </Array>
          </mxGeometry>
        </mxCell>
        <mxCell id="WDfkzNo3VNNOmqNmVodv-29" style="edgeStyle=orthogonalEdgeStyle;rounded=0;orthogonalLoop=1;jettySize=auto;html=1;" edge="1" parent="1" target="WDfkzNo3VNNOmqNmVodv-24">
          <mxGeometry relative="1" as="geometry">
            <mxPoint x="470" y="575" as="sourcePoint" />
          </mxGeometry>
        </mxCell>
        <mxCell id="WDfkzNo3VNNOmqNmVodv-46" style="edgeStyle=orthogonalEdgeStyle;rounded=0;orthogonalLoop=1;jettySize=auto;html=1;" edge="1" parent="1" source="WDfkzNo3VNNOmqNmVodv-17">
          <mxGeometry relative="1" as="geometry">
            <mxPoint x="437" y="905" as="targetPoint" />
          </mxGeometry>
        </mxCell>
        <mxCell id="WDfkzNo3VNNOmqNmVodv-17" value="Ruch pojazdu sterowany wybranym sposobem" style="rounded=0;whiteSpace=wrap;html=1;fontFamily=Verdana;fontSize=13;" vertex="1" parent="1">
          <mxGeometry x="377" y="505" width="120" height="70" as="geometry" />
        </mxCell>
        <mxCell id="WDfkzNo3VNNOmqNmVodv-37" value="" style="edgeStyle=orthogonalEdgeStyle;rounded=0;orthogonalLoop=1;jettySize=auto;html=1;" edge="1" parent="1" source="WDfkzNo3VNNOmqNmVodv-20" target="WDfkzNo3VNNOmqNmVodv-36">
          <mxGeometry relative="1" as="geometry" />
        </mxCell>
        <mxCell id="WDfkzNo3VNNOmqNmVodv-20" value="Czy pojazd jest niebezpiecznie blisko przeszkody?" style="rhombus;whiteSpace=wrap;html=1;" vertex="1" parent="1">
          <mxGeometry x="193" y="620" width="147" height="135" as="geometry" />
        </mxCell>
        <mxCell id="WDfkzNo3VNNOmqNmVodv-40" value="" style="edgeStyle=orthogonalEdgeStyle;rounded=0;orthogonalLoop=1;jettySize=auto;html=1;" edge="1" parent="1" source="WDfkzNo3VNNOmqNmVodv-24" target="WDfkzNo3VNNOmqNmVodv-39">
          <mxGeometry relative="1" as="geometry" />
        </mxCell>
        <mxCell id="WDfkzNo3VNNOmqNmVodv-24" value="Czy zadano polecenie wykonania zdjęcia?" style="rhombus;whiteSpace=wrap;html=1;" vertex="1" parent="1">
          <mxGeometry x="530" y="620" width="153" height="135" as="geometry" />
        </mxCell>
        <mxCell id="WDfkzNo3VNNOmqNmVodv-25" value="Transmisja i podgląd obrazu z kamery" style="rounded=0;whiteSpace=wrap;html=1;fontFamily=Verdana;fontSize=13;" vertex="1" parent="1">
          <mxGeometry x="60" y="485" width="120" height="60" as="geometry" />
        </mxCell>
        <mxCell id="WDfkzNo3VNNOmqNmVodv-34" value="" style="edgeStyle=elbowEdgeStyle;elbow=horizontal;endArrow=classic;html=1;curved=0;rounded=0;endSize=8;startSize=8;exitX=0;exitY=0.5;exitDx=0;exitDy=0;entryX=0;entryY=0.5;entryDx=0;entryDy=0;" edge="1" parent="1" source="WDfkzNo3VNNOmqNmVodv-20" target="WDfkzNo3VNNOmqNmVodv-17">
          <mxGeometry width="50" height="50" relative="1" as="geometry">
            <mxPoint x="160" y="705" as="sourcePoint" />
            <mxPoint x="307" y="540" as="targetPoint" />
            <Array as="points">
              <mxPoint x="190" y="615" />
            </Array>
          </mxGeometry>
        </mxCell>
        <mxCell id="WDfkzNo3VNNOmqNmVodv-35" value="NIE&lt;br&gt;" style="text;html=1;align=center;verticalAlign=middle;resizable=0;points=[];autosize=1;strokeColor=none;fillColor=none;" vertex="1" parent="1">
          <mxGeometry x="150" y="573" width="40" height="30" as="geometry" />
        </mxCell>
        <mxCell id="WDfkzNo3VNNOmqNmVodv-36" value="Awaryjne zatrzymanie pojazdu" style="shape=ext;double=1;rounded=0;whiteSpace=wrap;html=1;" vertex="1" parent="1">
          <mxGeometry x="206.5" y="815" width="120" height="80" as="geometry" />
        </mxCell>
        <mxCell id="WDfkzNo3VNNOmqNmVodv-38" value="TAK" style="text;html=1;align=center;verticalAlign=middle;resizable=0;points=[];autosize=1;strokeColor=none;fillColor=none;" vertex="1" parent="1">
          <mxGeometry x="220" y="765" width="50" height="30" as="geometry" />
        </mxCell>
        <mxCell id="WDfkzNo3VNNOmqNmVodv-39" value="Wykonanie zdjęcia i lokalny zapis" style="shape=ext;double=1;rounded=0;whiteSpace=wrap;html=1;" vertex="1" parent="1">
          <mxGeometry x="546.5" y="815" width="120" height="80" as="geometry" />
        </mxCell>
        <mxCell id="WDfkzNo3VNNOmqNmVodv-41" value="" style="edgeStyle=elbowEdgeStyle;elbow=horizontal;endArrow=classic;html=1;curved=0;rounded=0;endSize=8;startSize=8;exitX=1;exitY=0.5;exitDx=0;exitDy=0;entryX=1;entryY=0.5;entryDx=0;entryDy=0;" edge="1" parent="1" source="WDfkzNo3VNNOmqNmVodv-24" target="WDfkzNo3VNNOmqNmVodv-17">
          <mxGeometry width="50" height="50" relative="1" as="geometry">
            <mxPoint x="716" y="672.5" as="sourcePoint" />
            <mxPoint x="533" y="535" as="targetPoint" />
            <Array as="points">
              <mxPoint x="683" y="595" />
            </Array>
          </mxGeometry>
        </mxCell>
        <mxCell id="WDfkzNo3VNNOmqNmVodv-42" value="NIE" style="text;html=1;align=center;verticalAlign=middle;resizable=0;points=[];autosize=1;strokeColor=none;fillColor=none;" vertex="1" parent="1">
          <mxGeometry x="631" y="570" width="40" height="30" as="geometry" />
        </mxCell>
        <mxCell id="WDfkzNo3VNNOmqNmVodv-43" value="TAK" style="text;html=1;align=center;verticalAlign=middle;resizable=0;points=[];autosize=1;strokeColor=none;fillColor=none;" vertex="1" parent="1">
          <mxGeometry x="608" y="765" width="50" height="30" as="geometry" />
        </mxCell>
        <mxCell id="WDfkzNo3VNNOmqNmVodv-48" value="" style="edgeStyle=orthogonalEdgeStyle;rounded=0;orthogonalLoop=1;jettySize=auto;html=1;" edge="1" parent="1" source="WDfkzNo3VNNOmqNmVodv-44" target="WDfkzNo3VNNOmqNmVodv-47">
          <mxGeometry relative="1" as="geometry" />
        </mxCell>
        <mxCell id="WDfkzNo3VNNOmqNmVodv-44" value="Zakończenie przeprowadzanych operacji&amp;nbsp;" style="shape=ext;double=1;rounded=0;whiteSpace=wrap;html=1;" vertex="1" parent="1">
          <mxGeometry x="374" y="905" width="120" height="80" as="geometry" />
        </mxCell>
        <mxCell id="WDfkzNo3VNNOmqNmVodv-47" value="STOP" style="ellipse;shape=doubleEllipse;whiteSpace=wrap;html=1;" vertex="1" parent="1">
          <mxGeometry x="384" y="1035" width="100" height="60" as="geometry" />
        </mxCell>
      </root>
    </mxGraphModel>
  </diagram>
</mxfile>
